<?xml version="1.0" encoding="UTF-8"?>
<!DOCTYPE svg PUBLIC "-//W3C//DTD SVG 1.1//EN" "http://www.w3.org/Graphics/SVG/1.1/DTD/svg11.dtd">
<svg xmlns="http://www.w3.org/2000/svg" version="1.1" width="125px" height="179px" style="shape-rendering:geometricPrecision; text-rendering:geometricPrecision; image-rendering:optimizeQuality; fill-rule:evenodd; clip-rule:evenodd" xmlns:xlink="http://www.w3.org/1999/xlink">
<g><path style="opacity:1" fill="#d8fcee" d="M 66.5,-0.5 C 74.1667,-0.5 81.8333,-0.5 89.5,-0.5C 89.5,2.83333 89.5,6.16667 89.5,9.5C 92.9297,9.10653 96.0964,9.77319 99,11.5C 101.267,10.7108 103.6,10.0441 106,9.5C 106.95,10.0223 107.784,10.689 108.5,11.5C 109.328,10.5853 110.328,9.91862 111.5,9.5C 114.69,9.64323 117.857,9.64323 121,9.5C 122.732,9.73362 123.566,10.7336 123.5,12.5C 122.005,14.1697 120.672,16.003 119.5,18C 120.308,19.7058 121.641,20.5391 123.5,20.5C 123.5,24.1667 123.5,27.8333 123.5,31.5C 122.5,31.5 121.5,31.5 120.5,31.5C 120.34,33.1992 120.506,34.8659 121,36.5C 121.654,35.3044 122.154,35.3044 122.5,36.5C 120.896,38.1789 120.229,40.1789 120.5,42.5C 117.955,42.1505 115.955,42.9838 114.5,45C 115.713,47.6865 116.38,50.5198 116.5,53.5C 114.745,51.2388 113.578,48.5722 113,45.5C 111.301,44.5939 109.467,44.2606 107.5,44.5C 107.696,48.6058 106.363,51.9392 103.5,54.5C 103.5,54.1667 103.5,53.8333 103.5,53.5C 103.334,48.1563 103.501,42.8229 104,37.5C 104.465,36.0692 105.299,34.9025 106.5,34C 114.181,34.1783 116.181,31.0116 112.5,24.5C 116.011,18.8223 114.344,16.3223 107.5,17C 106.257,15.8455 105.257,14.5122 104.5,13C 103.207,12.51 101.873,12.3433 100.5,12.5C 100.719,13.675 100.386,14.675 99.5,15.5C 96.7523,16.8129 93.919,17.8129 91,18.5C 91.9189,21.2836 92.4189,24.2836 92.5,27.5C 91.5,27.5 90.5,27.5 89.5,27.5C 89.5,28.5 89.5,29.5 89.5,30.5C 79.1667,30.5 68.8333,30.5 58.5,30.5C 57.0384,29.5423 55.7051,28.3756 54.5,27C 52.735,26.3603 51.0683,26.5269 49.5,27.5C 45.7776,25.9553 45.7776,24.4553 49.5,23C 48.8333,22.6667 48.1667,22.3333 47.5,22C 49.7409,20.478 52.0742,19.1447 54.5,18C 50.8036,18.0032 47.1369,18.5032 43.5,19.5C 44.1667,17.5 45.5,16.1667 47.5,15.5C 49.9479,16.4731 52.6146,16.8064 55.5,16.5C 55.3118,18.1033 55.8118,19.4366 57,20.5C 58.0495,19.4829 59.2161,19.3162 60.5,20C 57.9722,20.6689 57.9722,21.5022 60.5,22.5C 61.3279,21.5853 62.3279,20.9186 63.5,20.5C 68.1201,21.1435 72.7868,21.1435 77.5,20.5C 77.8204,17.1016 77.487,13.7683 76.5,10.5C 73.4116,10.6482 70.245,10.3148 67,9.5C 67.3904,6.26875 67.2238,2.93541 66.5,-0.5 Z"/></g>
<g><path style="opacity:0.994" fill="#d7fdec" d="M -0.5,-0.5 C 21.8333,-0.5 44.1667,-0.5 66.5,-0.5C 67.2238,2.93541 67.3904,6.26875 67,9.5C 70.245,10.3148 73.4116,10.6482 76.5,10.5C 77.487,13.7683 77.8204,17.1016 77.5,20.5C 72.7868,21.1435 68.1201,21.1435 63.5,20.5C 62.3279,20.9186 61.3279,21.5853 60.5,22.5C 57.9722,21.5022 57.9722,20.6689 60.5,20C 59.2161,19.3162 58.0495,19.4829 57,20.5C 55.8118,19.4366 55.3118,18.1033 55.5,16.5C 52.6146,16.8064 49.9479,16.4731 47.5,15.5C 47.5394,14.4168 47.8728,13.4168 48.5,12.5C 44.5143,11.3429 42.681,8.67626 43,4.5C 42.4387,3.97814 41.772,3.6448 41,3.5C 37.4992,4.49155 33.9992,4.65821 30.5,4C 29.7728,6.12396 29.1062,8.29063 28.5,10.5C 27.675,11.3857 26.675,11.719 25.5,11.5C 25.5,12.8333 25.5,14.1667 25.5,15.5C 26.675,15.281 27.675,15.6143 28.5,16.5C 29.0412,18.5352 29.7078,20.5352 30.5,22.5C 33.3831,22.8723 36.3831,22.8723 39.5,22.5C 39.6741,24.861 40.0074,27.1944 40.5,29.5C 38.396,29.7989 36.396,29.4656 34.5,28.5C 35.6405,27.5745 35.6405,26.7412 34.5,26C 30.9105,26.0867 27.9105,24.92 25.5,22.5C 22.9741,24.4543 20.3075,26.121 17.5,27.5C 18.3982,30.4815 18.5649,33.4815 18,36.5C 19.6995,37.4061 21.5328,37.7394 23.5,37.5C 24.4112,40.9137 25.0779,44.4137 25.5,48C 25.1667,50.1667 24.8333,52.3333 24.5,54.5C 23.5224,54.0233 22.6891,53.3567 22,52.5C 20.8497,49.2321 20.0164,45.8988 19.5,42.5C 18.1779,42.33 17.0113,42.6634 16,43.5C 15.0114,49.1483 12.3448,53.815 8,57.5C 7.33333,59.1667 7.33333,60.8333 8,62.5C 10.565,64.9634 12.065,67.9634 12.5,71.5C 12.3601,73.0296 11.6935,74.0296 10.5,74.5C 10.9699,71.6544 10.1366,69.3211 8,67.5C 5.8913,68.0353 5.3913,69.0353 6.5,70.5C 3.62649,71.1061 1.29315,72.4395 -0.5,74.5C -0.5,49.5 -0.5,24.5 -0.5,-0.5 Z"/></g>
<g><path style="opacity:1" fill="#f09c9b" d="M 21.5,8.5 C 22.4682,10.6074 22.8016,12.9407 22.5,15.5C 17.8333,15.5 13.1667,15.5 8.5,15.5C 8.5,14.5 8.5,13.5 8.5,12.5C 11.2614,11.863 13.9281,10.863 16.5,9.5C 19.0777,9.61523 20.5777,10.9486 21,13.5C 21.4935,11.8659 21.6602,10.1992 21.5,8.5 Z"/></g>
<g><path style="opacity:1" fill="#df2226" d="M 21.5,8.5 C 21.6602,10.1992 21.4935,11.8659 21,13.5C 20.5777,10.9486 19.0777,9.61523 16.5,9.5C 13.9281,10.863 11.2614,11.863 8.5,12.5C 8.5,11.1667 8.5,9.83333 8.5,8.5C 12.8333,8.5 17.1667,8.5 21.5,8.5 Z"/></g>
<g><path style="opacity:1" fill="#f1faf8" d="M 47.5,15.5 C 45.5,16.1667 44.1667,17.5 43.5,19.5C 42.8333,19.5 42.1667,19.5 41.5,19.5C 42.5192,17.4595 42.5192,15.4595 41.5,13.5C 38.1281,15.2234 37.7948,17.2234 40.5,19.5C 40.4431,20.609 40.1098,21.609 39.5,22.5C 36.3831,22.8723 33.3831,22.8723 30.5,22.5C 29.7078,20.5352 29.0412,18.5352 28.5,16.5C 27.675,15.6143 26.675,15.281 25.5,15.5C 25.5,14.1667 25.5,12.8333 25.5,11.5C 26.675,11.719 27.675,11.3857 28.5,10.5C 29.1062,8.29063 29.7728,6.12396 30.5,4C 33.9992,4.65821 37.4992,4.49155 41,3.5C 41.772,3.6448 42.4387,3.97814 43,4.5C 42.681,8.67626 44.5143,11.3429 48.5,12.5C 47.8728,13.4168 47.5394,14.4168 47.5,15.5 Z"/></g>
<g><path style="opacity:1" fill="#182250" d="M 41.5,19.5 C 41.1667,19.5 40.8333,19.5 40.5,19.5C 37.7948,17.2234 38.1281,15.2234 41.5,13.5C 42.5192,15.4595 42.5192,17.4595 41.5,19.5 Z"/></g>
<g><path style="opacity:1" fill="#5598e9" d="M 49.5,27.5 C 47.6855,30.4074 45.0188,31.7407 41.5,31.5C 41.6716,30.5084 41.3382,29.8417 40.5,29.5C 40.0074,27.1944 39.6741,24.861 39.5,22.5C 40.1098,21.609 40.4431,20.609 40.5,19.5C 40.8333,19.5 41.1667,19.5 41.5,19.5C 42.1667,19.5 42.8333,19.5 43.5,19.5C 47.1369,18.5032 50.8036,18.0032 54.5,18C 52.0742,19.1447 49.7409,20.478 47.5,22C 48.1667,22.3333 48.8333,22.6667 49.5,23C 45.7776,24.4553 45.7776,25.9553 49.5,27.5 Z"/></g>
<g><path style="opacity:1" fill="#15254f" d="M 58.5,30.5 C 73.1667,31.1667 87.8333,31.8333 102.5,32.5C 84.8208,32.1671 67.1541,32.5005 49.5,33.5C 49.6236,34.1067 49.9569,34.44 50.5,34.5C 51.5,36.1667 52.8333,37.5 54.5,38.5C 54.5,39.1667 54.1667,39.5 53.5,39.5C 50.6884,37.9235 48.0217,36.0902 45.5,34C 38.8085,33.8309 32.1419,33.3309 25.5,32.5C 30.7921,31.5052 36.1254,31.1718 41.5,31.5C 45.0188,31.7407 47.6855,30.4074 49.5,27.5C 51.0683,26.5269 52.735,26.3603 54.5,27C 55.7051,28.3756 57.0384,29.5423 58.5,30.5 Z"/></g>
<g><path style="opacity:1" fill="#9dbece" d="M 50.5,29.5 C 52.7505,29.1814 54.7505,29.6814 56.5,31C 54.1667,31.6667 51.8333,31.6667 49.5,31C 50.056,30.6174 50.3893,30.1174 50.5,29.5 Z"/></g>
<g><path style="opacity:0.994" fill="#d6feeb" d="M 89.5,-0.5 C 101.167,-0.5 112.833,-0.5 124.5,-0.5C 124.5,47.8333 124.5,96.1667 124.5,144.5C 122.26,145.973 119.76,146.973 117,147.5C 114.242,146.883 111.409,146.716 108.5,147C 108.167,146.667 107.833,146.333 107.5,146C 111.226,144.957 110.893,144.457 106.5,144.5C 106.719,145.675 106.386,146.675 105.5,147.5C 103.775,146.985 102.108,146.318 100.5,145.5C 101.325,144.614 102.325,144.281 103.5,144.5C 103.896,141.956 103.229,139.789 101.5,138C 103.047,137.667 104.38,138.167 105.5,139.5C 105.833,139.167 106.167,138.833 106.5,138.5C 105.05,137.15 104.383,135.484 104.5,133.5C 102.901,133.768 101.568,133.434 100.5,132.5C 104.5,132.5 108.5,132.5 112.5,132.5C 112.5,129.833 112.5,127.167 112.5,124.5C 110.801,124.66 109.134,124.494 107.5,124C 108,123.5 108.5,123 109,122.5C 109.5,112.839 109.666,103.172 109.5,93.5C 108.048,92.6981 106.382,92.1981 104.5,92C 106.899,91.289 109.232,91.4557 111.5,92.5C 112.292,91.3002 112.292,89.9669 111.5,88.5C 112.404,87.791 112.737,86.791 112.5,85.5C 113.373,83.1137 114.873,81.1137 117,79.5C 116.667,75.8333 116.333,72.1667 116,68.5C 118.063,65.9462 119.897,63.2796 121.5,60.5C 119.605,58.3691 117.938,56.0358 116.5,53.5C 116.38,50.5198 115.713,47.6865 114.5,45C 115.955,42.9838 117.955,42.1505 120.5,42.5C 120.229,40.1789 120.896,38.1789 122.5,36.5C 122.154,35.3044 121.654,35.3044 121,36.5C 120.506,34.8659 120.34,33.1992 120.5,31.5C 121.5,31.5 122.5,31.5 123.5,31.5C 123.5,27.8333 123.5,24.1667 123.5,20.5C 121.641,20.5391 120.308,19.7058 119.5,18C 120.672,16.003 122.005,14.1697 123.5,12.5C 123.566,10.7336 122.732,9.73362 121,9.5C 117.857,9.64323 114.69,9.64323 111.5,9.5C 110.328,9.91862 109.328,10.5853 108.5,11.5C 107.784,10.689 106.95,10.0223 106,9.5C 103.6,10.0441 101.267,10.7108 99,11.5C 96.0964,9.77319 92.9297,9.10653 89.5,9.5C 89.5,6.16667 89.5,2.83333 89.5,-0.5 Z"/></g>
<g><path style="opacity:1" fill="#4c5f88" d="M 102.5,32.5 C 85.1667,33.1667 67.8333,33.8333 50.5,34.5C 49.9569,34.44 49.6236,34.1067 49.5,33.5C 67.1541,32.5005 84.8208,32.1671 102.5,32.5 Z"/></g>
<g><path style="opacity:1" fill="#e4efef" d="M 103.5,53.5 C 102.642,49.3268 101.976,44.9935 101.5,40.5C 100.167,40.5 98.8333,40.5 97.5,40.5C 94.9407,40.1984 92.6074,40.5318 90.5,41.5C 80.5605,43.0273 70.5605,44.0273 60.5,44.5C 56.8512,44.5266 55.5179,43.0266 56.5,40C 56.1639,38.9701 55.4972,38.4701 54.5,38.5C 52.8333,37.5 51.5,36.1667 50.5,34.5C 67.8333,33.8333 85.1667,33.1667 102.5,32.5C 87.8333,31.8333 73.1667,31.1667 58.5,30.5C 68.8333,30.5 79.1667,30.5 89.5,30.5C 89.5,29.5 89.5,28.5 89.5,27.5C 90.5,27.5 91.5,27.5 92.5,27.5C 92.4189,24.2836 91.9189,21.2836 91,18.5C 93.919,17.8129 96.7523,16.8129 99.5,15.5C 100.386,14.675 100.719,13.675 100.5,12.5C 101.873,12.3433 103.207,12.51 104.5,13C 105.257,14.5122 106.257,15.8455 107.5,17C 114.344,16.3223 116.011,18.8223 112.5,24.5C 116.181,31.0116 114.181,34.1783 106.5,34C 105.299,34.9025 104.465,36.0692 104,37.5C 103.501,42.8229 103.334,48.1563 103.5,53.5 Z"/></g>
<g><path style="opacity:1" fill="#5b60cb" d="M 97.5,40.5 C 98.8333,40.5 100.167,40.5 101.5,40.5C 101.976,44.9935 102.642,49.3268 103.5,53.5C 103.5,53.8333 103.5,54.1667 103.5,54.5C 104.012,58.0349 104.012,61.3682 103.5,64.5C 103.167,64.5 102.833,64.5 102.5,64.5C 101.694,63.2719 100.694,62.2719 99.5,61.5C 102.726,60.1233 103.059,58.4566 100.5,56.5C 101.614,52.2913 101.447,47.9579 100,43.5C 99.3021,42.3094 98.4687,41.3094 97.5,40.5 Z"/></g>
<g><path style="opacity:1" fill="#d1d1e8" d="M 54.5,38.5 C 55.4972,38.4701 56.1639,38.9701 56.5,40C 55.5179,43.0266 56.8512,44.5266 60.5,44.5C 59.0998,45.1001 58.0998,46.1001 57.5,47.5C 48.8269,47.6664 40.1603,47.4998 31.5,47C 32.4158,46.7216 33.0825,46.2216 33.5,45.5C 34.5,45.5 35.5,45.5 36.5,45.5C 42.987,46.654 49.6536,46.8206 56.5,46C 55.541,44.5362 54.2077,43.7028 52.5,43.5C 48.5474,44.3619 44.5474,44.6952 40.5,44.5C 40.5,43.1667 40.5,41.8333 40.5,40.5C 45.0323,40.8182 49.3656,40.4849 53.5,39.5C 54.1667,39.5 54.5,39.1667 54.5,38.5 Z"/></g>
<g><path style="opacity:1" fill="#5f59d1" d="M 90.5,41.5 C 96.8038,41.831 96.4705,42.331 89.5,43C 79.5309,44.4958 69.5309,45.6625 59.5,46.5C 60.3544,53.481 61.021,60.481 61.5,67.5C 62.5521,69.256 64.2188,69.9227 66.5,69.5C 65.791,70.404 64.791,70.7373 63.5,70.5C 62.5,70.5 61.5,70.5 60.5,70.5C 59.8645,62.7798 58.8645,55.1131 57.5,47.5C 58.0998,46.1001 59.0998,45.1001 60.5,44.5C 70.5605,44.0273 80.5605,43.0273 90.5,41.5 Z"/></g>
<g><path style="opacity:1" fill="#c5adfb" d="M 90.5,41.5 C 92.6074,40.5318 94.9407,40.1984 97.5,40.5C 98.4687,41.3094 99.3021,42.3094 100,43.5C 101.447,47.9579 101.614,52.2913 100.5,56.5C 97.5178,54.5258 94.5178,52.5258 91.5,50.5C 87.6686,54.8254 83.8352,59.1587 80,63.5C 77,61.5 74,59.5 71,57.5C 68.0556,61.0654 64.8889,64.3987 61.5,67.5C 61.021,60.481 60.3544,53.481 59.5,46.5C 69.5309,45.6625 79.5309,44.4958 89.5,43C 96.4705,42.331 96.8038,41.831 90.5,41.5 Z"/></g>
<g><path style="opacity:1" fill="#f5f1fa" d="M 75.5,47.5 C 80.0057,46.5272 82.1724,48.1939 82,52.5C 78.5067,55.5018 76.0067,54.8351 74.5,50.5C 74.685,49.4163 75.0183,48.4163 75.5,47.5 Z"/></g>
<g><path style="opacity:1" fill="#ebf2f4" d="M 40.5,29.5 C 41.3382,29.8417 41.6716,30.5084 41.5,31.5C 36.1254,31.1718 30.7921,31.5052 25.5,32.5C 32.1419,33.3309 38.8085,33.8309 45.5,34C 48.0217,36.0902 50.6884,37.9235 53.5,39.5C 49.3656,40.4849 45.0323,40.8182 40.5,40.5C 40.5,41.8333 40.5,43.1667 40.5,44.5C 44.5474,44.6952 48.5474,44.3619 52.5,43.5C 54.2077,43.7028 55.541,44.5362 56.5,46C 49.6536,46.8206 42.987,46.654 36.5,45.5C 38.3769,44.3409 38.8769,42.6742 38,40.5C 33.3772,38.3223 31.3772,39.6556 32,44.5C 32.3826,45.056 32.8826,45.3893 33.5,45.5C 33.0825,46.2216 32.4158,46.7216 31.5,47C 40.1603,47.4998 48.8269,47.6664 57.5,47.5C 58.8645,55.1131 59.8645,62.7798 60.5,70.5C 61.5,70.5 62.5,70.5 63.5,70.5C 63.5,71.8333 63.5,73.1667 63.5,74.5C 65.4672,74.7394 67.3005,74.4061 69,73.5C 69.2784,74.4158 69.7784,75.0825 70.5,75.5C 77.8333,75.5 85.1667,75.5 92.5,75.5C 92.8891,78.946 93.7225,82.2794 95,85.5C 95.3333,83.5 95.6667,81.5 96,79.5C 98.1079,81.9587 100.608,83.4587 103.5,84C 102,82.5 100.5,81 99,79.5C 98.5045,77.5273 98.3379,75.5273 98.5,73.5C 97.209,73.7373 96.209,73.404 95.5,72.5C 97.1667,72.5 98.8333,72.5 100.5,72.5C 100.579,71.0695 100.246,69.7362 99.5,68.5C 100.826,67.3578 101.826,66.0245 102.5,64.5C 102.833,64.5 103.167,64.5 103.5,64.5C 102.121,72.5471 104.121,79.3804 109.5,85C 110.448,85.4828 111.448,85.6495 112.5,85.5C 112.737,86.791 112.404,87.791 111.5,88.5C 104.825,88.6663 98.1583,88.4996 91.5,88C 92.4438,85.2809 92.7771,82.4475 92.5,79.5C 85.7446,79.7934 79.0779,79.4601 72.5,78.5C 72.5,77.8333 72.1667,77.5 71.5,77.5C 62.5,76.1667 53.5,76.1667 44.5,77.5C 43.596,78.209 43.2627,79.209 43.5,80.5C 42.1667,80.5 40.8333,80.5 39.5,80.5C 38.5318,82.6074 38.1984,84.9407 38.5,87.5C 35.2569,88.58 31.9236,88.7466 28.5,88C 32.5986,84.8482 32.2653,83.6815 27.5,84.5C 29.3548,82.9669 31.1881,81.3003 33,79.5C 33.3333,81.5 33.6667,83.5 34,85.5C 34.9428,82.176 35.7761,78.8426 36.5,75.5C 38.5,75.5 40.5,75.5 42.5,75.5C 42.5,74.5 42.5,73.5 42.5,72.5C 40.5,72.5 38.5,72.5 36.5,72.5C 36.5,70.1667 36.5,67.8333 36.5,65.5C 41.9829,64.0426 47.6496,63.0426 53.5,62.5C 45.1866,61.6683 36.8532,61.1683 28.5,61C 27.3816,59.9264 26.3816,58.7598 25.5,57.5C 24.7896,60.0858 25.7896,62.0858 28.5,63.5C 29.1671,67.3125 29.8337,70.9792 30.5,74.5C 30.5,75.5 30.5,76.5 30.5,77.5C 29.1779,77.67 28.0113,77.3366 27,76.5C 26.5017,73.1832 26.335,69.8499 26.5,66.5C 24.6096,66.2965 23.1096,66.9632 22,68.5C 22.3333,72.1667 22.6667,75.8333 23,79.5C 21.686,81.8122 20.0194,83.8122 18,85.5C 13.2418,83.2624 10.7418,79.5957 10.5,74.5C 11.6935,74.0296 12.3601,73.0296 12.5,71.5C 12.065,67.9634 10.565,64.9634 8,62.5C 7.33333,60.8333 7.33333,59.1667 8,57.5C 12.3448,53.815 15.0114,49.1483 16,43.5C 17.0113,42.6634 18.1779,42.33 19.5,42.5C 20.0164,45.8988 20.8497,49.2321 22,52.5C 22.6891,53.3567 23.5224,54.0233 24.5,54.5C 24.8333,52.3333 25.1667,50.1667 25.5,48C 25.0779,44.4137 24.4112,40.9137 23.5,37.5C 21.5328,37.7394 19.6995,37.4061 18,36.5C 18.5649,33.4815 18.3982,30.4815 17.5,27.5C 20.3075,26.121 22.9741,24.4543 25.5,22.5C 27.9105,24.92 30.9105,26.0867 34.5,26C 35.6405,26.7412 35.6405,27.5745 34.5,28.5C 36.396,29.4656 38.396,29.7989 40.5,29.5 Z"/></g>
<g><path style="opacity:1" fill="#392ee1" d="M 35.5,50.5 C 36.8528,52.1284 36.5195,53.4617 34.5,54.5C 32.8235,53.8166 32.1568,52.4832 32.5,50.5C 33.5,50.5 34.5,50.5 35.5,50.5 Z"/></g>
<g><path style="opacity:1" fill="#322ed9" d="M 38.5,50.5 C 39.8333,50.5 41.1667,50.5 42.5,50.5C 42.5,51.8333 42.5,53.1667 42.5,54.5C 41.1667,54.5 39.8333,54.5 38.5,54.5C 38.5,53.1667 38.5,51.8333 38.5,50.5 Z"/></g>
<g><path style="opacity:1" fill="#352fdf" d="M 44.5,50.5 C 45.8333,50.5 47.1667,50.5 48.5,50.5C 48.5,51.8333 48.5,53.1667 48.5,54.5C 47.1667,54.5 45.8333,54.5 44.5,54.5C 44.5,53.1667 44.5,51.8333 44.5,50.5 Z"/></g>
<g><path style="opacity:1" fill="#2b26e5" d="M 36.5,45.5 C 35.5,45.5 34.5,45.5 33.5,45.5C 32.8826,45.3893 32.3826,45.056 32,44.5C 31.3772,39.6556 33.3772,38.3223 38,40.5C 38.8769,42.6742 38.3769,44.3409 36.5,45.5 Z"/></g>
<g><path style="opacity:1" fill="#be54e9" d="M 35.5,50.5 C 34.5,50.5 33.5,50.5 32.5,50.5C 32.1568,52.4832 32.8235,53.8166 34.5,54.5C 34.5,54.8333 34.5,55.1667 34.5,55.5C 34.5,56.1667 34.5,56.8333 34.5,57.5C 33.3599,61.2927 31.6932,61.4593 29.5,58C 30.9944,55.3612 31.6611,52.5279 31.5,49.5C 33.099,49.2322 34.4324,49.5655 35.5,50.5 Z"/></g>
<g><path style="opacity:1" fill="#0c0eee" d="M 34.5,55.5 C 34.8333,55.5 35.1667,55.5 35.5,55.5C 41.6792,56.1666 48.0125,56.8332 54.5,57.5C 48.2015,58.4963 41.8682,58.8297 35.5,58.5C 35.5,57.8333 35.1667,57.5 34.5,57.5C 34.5,56.8333 34.5,56.1667 34.5,55.5 Z"/></g>
<g><path style="opacity:1" fill="#3335db" d="M 35.5,55.5 C 42.1667,55.5 48.8333,55.5 55.5,55.5C 55.5,56.8333 55.5,58.1667 55.5,59.5C 48.6457,59.824 41.979,59.4907 35.5,58.5C 41.8682,58.8297 48.2015,58.4963 54.5,57.5C 48.0125,56.8332 41.6792,56.1666 35.5,55.5 Z"/></g>
<g><path style="opacity:1" fill="#6b9be9" d="M 36.5,72.5 C 36.5,72.8333 36.5,73.1667 36.5,73.5C 34.2646,73.2053 32.2646,73.5386 30.5,74.5C 29.8337,70.9792 29.1671,67.3125 28.5,63.5C 25.7896,62.0858 24.7896,60.0858 25.5,57.5C 26.3816,58.7598 27.3816,59.9264 28.5,61C 36.8532,61.1683 45.1866,61.6683 53.5,62.5C 47.6496,63.0426 41.9829,64.0426 36.5,65.5C 36.5,67.8333 36.5,70.1667 36.5,72.5 Z"/></g>
<g><path style="opacity:1" fill="#2523f1" d="M 100.5,56.5 C 103.059,58.4566 102.726,60.1233 99.5,61.5C 97.744,60.4479 97.0773,58.7812 97.5,56.5C 96.4324,55.5655 95.099,55.2322 93.5,55.5C 93.5,56.8333 93.5,58.1667 93.5,59.5C 92.5489,60.9187 92.2155,62.5853 92.5,64.5C 84.1087,67.1777 75.4421,68.8443 66.5,69.5C 64.2188,69.9227 62.5521,69.256 61.5,67.5C 64.8889,64.3987 68.0556,61.0654 71,57.5C 74,59.5 77,61.5 80,63.5C 83.8352,59.1587 87.6686,54.8254 91.5,50.5C 94.5178,52.5258 97.5178,54.5258 100.5,56.5 Z"/></g>
<g><path style="opacity:1" fill="#a5a7af" d="M 97.5,56.5 C 96.5,56.5 95.5,56.5 94.5,56.5C 94.7373,57.791 94.404,58.791 93.5,59.5C 93.5,58.1667 93.5,56.8333 93.5,55.5C 95.099,55.2322 96.4324,55.5655 97.5,56.5 Z"/></g>
<g><path style="opacity:1" fill="#6c80c6" d="M 93.5,59.5 C 93.6775,60.6948 94.0109,61.8615 94.5,63C 94.1639,64.0299 93.4972,64.5299 92.5,64.5C 92.2155,62.5853 92.5489,60.9187 93.5,59.5 Z"/></g>
<g><path style="opacity:1" fill="#f7f947" d="M 97.5,56.5 C 97.0773,58.7812 97.744,60.4479 99.5,61.5C 100.694,62.2719 101.694,63.2719 102.5,64.5C 101.826,66.0245 100.826,67.3578 99.5,68.5C 100.246,69.7362 100.579,71.0695 100.5,72.5C 98.8333,72.5 97.1667,72.5 95.5,72.5C 95.7148,70.8212 95.0481,69.8212 93.5,69.5C 91.31,68.2524 90.9766,66.5857 92.5,64.5C 93.4972,64.5299 94.1639,64.0299 94.5,63C 94.0109,61.8615 93.6775,60.6948 93.5,59.5C 94.404,58.791 94.7373,57.791 94.5,56.5C 95.5,56.5 96.5,56.5 97.5,56.5 Z"/></g>
<g><path style="opacity:1" fill="#f7f9f9" d="M 116.5,53.5 C 117.938,56.0358 119.605,58.3691 121.5,60.5C 119.897,63.2796 118.063,65.9462 116,68.5C 116.333,72.1667 116.667,75.8333 117,79.5C 114.873,81.1137 113.373,83.1137 112.5,85.5C 111.448,85.6495 110.448,85.4828 109.5,85C 104.121,79.3804 102.121,72.5471 103.5,64.5C 104.012,61.3682 104.012,58.0349 103.5,54.5C 106.363,51.9392 107.696,48.6058 107.5,44.5C 109.467,44.2606 111.301,44.5939 113,45.5C 113.578,48.5722 114.745,51.2388 116.5,53.5 Z"/></g>
<g><path style="opacity:1" fill="#c3cada" d="M 92.5,64.5 C 90.9766,66.5857 91.31,68.2524 93.5,69.5C 93.4431,70.609 93.1098,71.609 92.5,72.5C 85.1667,72.5 77.8333,72.5 70.5,72.5C 70.5,73.5 70.5,74.5 70.5,75.5C 69.7784,75.0825 69.2784,74.4158 69,73.5C 67.3005,74.4061 65.4672,74.7394 63.5,74.5C 63.5,73.1667 63.5,71.8333 63.5,70.5C 64.791,70.7373 65.791,70.404 66.5,69.5C 75.4421,68.8443 84.1087,67.1777 92.5,64.5 Z"/></g>
<g><path style="opacity:0.995" fill="#d5fbed" d="M 30.5,77.5 C 29.4566,80.0562 27.7899,82.2228 25.5,84C 26.0944,84.4643 26.7611,84.631 27.5,84.5C 32.2653,83.6815 32.5986,84.8482 28.5,88C 31.9236,88.7466 35.2569,88.58 38.5,87.5C 38.5,88.8333 38.5,90.1667 38.5,91.5C 37.325,91.281 36.325,91.6143 35.5,92.5C 36.8333,93.5 38.1667,94.5 39.5,95.5C 39.3333,95.8333 39.1667,96.1667 39,96.5C 38.2588,95.3595 37.4255,95.3595 36.5,96.5C 35.8333,95.8333 35.1667,95.1667 34.5,94.5C 33.5997,97.7157 31.933,100.382 29.5,102.5C 29.33,103.822 29.6634,104.989 30.5,106C 28.6969,106.637 27.3636,107.803 26.5,109.5C 25.2124,113.034 23.5458,116.367 21.5,119.5C 23.9234,119.143 26.2567,119.977 28.5,122C 27.7476,122.671 27.4142,123.504 27.5,124.5C 26.0335,121.742 25.3668,122.075 25.5,125.5C 24.1667,125.5 22.8333,125.5 21.5,125.5C 21.2011,127.604 21.5344,129.604 22.5,131.5C 23.2508,130.624 23.7508,129.624 24,128.5C 25.6116,131.479 28.1116,132.812 31.5,132.5C 31.443,128.867 32.443,128.7 34.5,132C 35.7932,132.49 37.1266,132.657 38.5,132.5C 40.4835,132.617 42.1502,131.95 43.5,130.5C 45.1727,132.086 47.1727,132.753 49.5,132.5C 51.5648,132.483 53.5648,132.15 55.5,131.5C 55.7352,132.097 56.2352,132.43 57,132.5C 58.5671,131.144 60.4004,130.477 62.5,130.5C 62.4609,132.359 63.2942,133.692 65,134.5C 68.1746,130.239 70.0079,130.905 70.5,136.5C 70.3333,137.167 70.1667,137.833 70,138.5C 69.3109,137.643 68.4776,136.977 67.5,136.5C 66.7022,138.078 66.2022,139.744 66,141.5C 63.8113,134.987 61.6446,134.987 59.5,141.5C 59.9569,142.298 60.6236,142.631 61.5,142.5C 58.3586,143.321 55.0252,143.821 51.5,144C 51,144.5 50.5,145 50,145.5C 47.3157,144.163 44.6491,142.83 42,141.5C 39.851,143.458 37.5177,143.791 35,142.5C 34.8038,144.286 33.9705,145.619 32.5,146.5C 31.3044,146.154 31.3044,145.654 32.5,145C 30.5273,144.505 28.5273,144.338 26.5,144.5C 26.6303,147.237 25.4636,149.237 23,150.5C 22.5,150.167 22,149.833 21.5,149.5C 22.1667,148.833 22.8333,148.167 23.5,147.5C 21.3449,146.999 19.6782,145.999 18.5,144.5C 19.3019,143.048 19.8019,141.382 20,139.5C 21.0195,140.687 22.1861,141.687 23.5,142.5C 24.1924,141.975 24.6924,141.308 25,140.5C 28.0399,144.234 31.2066,144.234 34.5,140.5C 35.4776,140.977 36.3109,141.643 37,142.5C 36.5031,140.802 36.6698,139.135 37.5,137.5C 37.3333,137.167 37.1667,136.833 37,136.5C 34.8223,139.468 33.6556,139.135 33.5,135.5C 26.2237,136.723 19.057,136.723 12,135.5C 10.6244,135.684 9.79106,136.351 9.5,137.5C 7.071,136.735 5.73767,135.069 5.5,132.5C 6.5,132.5 7.5,132.5 8.5,132.5C 8.92255,128.449 8.25588,124.616 6.5,121C 6.75908,119.739 7.42575,118.739 8.5,118C 6.86541,117.46 5.53208,117.96 4.5,119.5C 3.5,118.833 2.5,118.167 1.5,117.5C 0.818153,118.243 0.151487,118.909 -0.5,119.5C -0.5,104.5 -0.5,89.5 -0.5,74.5C 1.29315,72.4395 3.62649,71.1061 6.5,70.5C 5.3913,69.0353 5.8913,68.0353 8,67.5C 10.1366,69.3211 10.9699,71.6544 10.5,74.5C 10.7418,79.5957 13.2418,83.2624 18,85.5C 20.0194,83.8122 21.686,81.8122 23,79.5C 22.6667,75.8333 22.3333,72.1667 22,68.5C 23.1096,66.9632 24.6096,66.2965 26.5,66.5C 26.335,69.8499 26.5017,73.1832 27,76.5C 28.0113,77.3366 29.1779,77.67 30.5,77.5 Z"/></g>
<g><path style="opacity:1" fill="#0e1c47" d="M 44.5,72.5 C 47.8333,72.5 51.1667,72.5 54.5,72.5C 54.5,73.5 54.5,74.5 54.5,75.5C 51.1667,75.5 47.8333,75.5 44.5,75.5C 44.5,74.5 44.5,73.5 44.5,72.5 Z"/></g>
<g><path style="opacity:1" fill="#e9ee69" d="M 36.5,72.5 C 38.5,72.5 40.5,72.5 42.5,72.5C 42.5,73.5 42.5,74.5 42.5,75.5C 40.5,75.5 38.5,75.5 36.5,75.5C 36.5,74.8333 36.5,74.1667 36.5,73.5C 36.5,73.1667 36.5,72.8333 36.5,72.5 Z"/></g>
<g><path style="opacity:1" fill="#3133d6" d="M 92.5,72.5 C 92.5,73.5 92.5,74.5 92.5,75.5C 85.1667,75.5 77.8333,75.5 70.5,75.5C 70.5,74.5 70.5,73.5 70.5,72.5C 77.8333,72.5 85.1667,72.5 92.5,72.5 Z"/></g>
<g><path style="opacity:1" fill="#142b5b" d="M 36.5,73.5 C 36.5,74.1667 36.5,74.8333 36.5,75.5C 35.7761,78.8426 34.9428,82.176 34,85.5C 33.6667,83.5 33.3333,81.5 33,79.5C 31.1881,81.3003 29.3548,82.9669 27.5,84.5C 26.7611,84.631 26.0944,84.4643 25.5,84C 27.7899,82.2228 29.4566,80.0562 30.5,77.5C 30.5,76.5 30.5,75.5 30.5,74.5C 32.2646,73.5386 34.2646,73.2053 36.5,73.5 Z"/></g>
<g><path style="opacity:1" fill="#182f5e" d="M 93.5,69.5 C 95.0481,69.8212 95.7148,70.8212 95.5,72.5C 96.209,73.404 97.209,73.7373 98.5,73.5C 98.3379,75.5273 98.5045,77.5273 99,79.5C 100.5,81 102,82.5 103.5,84C 100.608,83.4587 98.1079,81.9587 96,79.5C 95.6667,81.5 95.3333,83.5 95,85.5C 93.7225,82.2794 92.8891,78.946 92.5,75.5C 92.5,74.5 92.5,73.5 92.5,72.5C 93.1098,71.609 93.4431,70.609 93.5,69.5 Z"/></g>
<g><path style="opacity:1" fill="#3d37e4" d="M 71.5,77.5 C 71.5,79.5 71.5,81.5 71.5,83.5C 69.8333,83.5 68.1667,83.5 66.5,83.5C 66.5,82.1667 66.5,80.8333 66.5,79.5C 58.7572,80.1299 51.4238,79.4633 44.5,77.5C 53.5,76.1667 62.5,76.1667 71.5,77.5 Z"/></g>
<g><path style="opacity:1" fill="#4684f1" d="M 44.5,77.5 C 51.4238,79.4633 58.7572,80.1299 66.5,79.5C 66.5,80.8333 66.5,82.1667 66.5,83.5C 68.1667,83.5 69.8333,83.5 71.5,83.5C 71.5,81.5 71.5,79.5 71.5,77.5C 72.1667,77.5 72.5,77.8333 72.5,78.5C 72.5,80.5 72.5,82.5 72.5,84.5C 70.8333,84.5 69.1667,84.5 67.5,84.5C 58.4299,86.4308 49.0966,87.0974 39.5,86.5C 39.5,84.5 39.5,82.5 39.5,80.5C 40.8333,80.5 42.1667,80.5 43.5,80.5C 43.2627,79.209 43.596,78.209 44.5,77.5 Z"/></g>
<g><path style="opacity:1" fill="#1122f3" d="M 41.5,81.5 C 42.8333,81.5 44.1667,81.5 45.5,81.5C 45.5,82.8333 45.5,84.1667 45.5,85.5C 44.1667,85.5 42.8333,85.5 41.5,85.5C 41.5,84.1667 41.5,82.8333 41.5,81.5 Z"/></g>
<g><path style="opacity:1" fill="#81a8da" d="M 39.5,80.5 C 39.5,82.5 39.5,84.5 39.5,86.5C 49.0966,87.0974 58.4299,86.4308 67.5,84.5C 67.5,85.5 67.5,86.5 67.5,87.5C 57.8333,87.5 48.1667,87.5 38.5,87.5C 38.1984,84.9407 38.5318,82.6074 39.5,80.5 Z"/></g>
<g><path style="opacity:1" fill="#d5fcec" d="M 72.5,78.5 C 79.0779,79.4601 85.7446,79.7934 92.5,79.5C 92.7771,82.4475 92.4438,85.2809 91.5,88C 98.1583,88.4996 104.825,88.6663 111.5,88.5C 112.292,89.9669 112.292,91.3002 111.5,92.5C 109.232,91.4557 106.899,91.289 104.5,92C 106.382,92.1981 108.048,92.6981 109.5,93.5C 109.167,93.5 108.833,93.5 108.5,93.5C 105.09,93.7819 101.757,94.4486 98.5,95.5C 97.269,96.6507 97.269,97.8173 98.5,99C 100.134,99.4935 101.801,99.6602 103.5,99.5C 103.5,106.833 103.5,114.167 103.5,121.5C 104.567,123.879 103.567,124.879 100.5,124.5C 100.5,127.167 100.5,129.833 100.5,132.5C 99.9569,132.56 99.6236,132.893 99.5,133.5C 100.376,134.251 101.376,134.751 102.5,135C 100.5,136.324 98.8334,137.991 97.5,140C 101.5,141 101.5,142 97.5,143C 98.1667,143.667 98.8333,144.333 99.5,145C 98.2841,146.594 96.9507,148.094 95.5,149.5C 96.8333,150.5 98.1667,151.5 99.5,152.5C 98.6721,153.415 97.6721,154.081 96.5,154.5C 95.8055,158.713 95.1388,162.879 94.5,167C 95.448,167.483 96.448,167.649 97.5,167.5C 97.238,166.022 97.5713,164.689 98.5,163.5C 99.3184,165.108 99.9851,166.775 100.5,168.5C 99.2402,169.382 98.0736,170.382 97,171.5C 96.3741,169.009 95.5407,169.009 94.5,171.5C 91.7336,171.372 88.9002,170.706 86,169.5C 78.5005,170.705 71.0005,170.705 63.5,169.5C 63.5,167.833 63.5,166.167 63.5,164.5C 67.5,164.5 71.5,164.5 75.5,164.5C 76.1667,168.5 76.8333,168.5 77.5,164.5C 79.7224,164.178 81.5557,164.845 83,166.5C 83.4828,165.552 83.6495,164.552 83.5,163.5C 85.9806,163.677 87.8139,162.677 89,160.5C 90.016,161.634 90.6827,161.301 91,159.5C 91.6667,160.833 92.3333,162.167 93,163.5C 93.1045,160.527 92.9379,157.527 92.5,154.5C 92.7895,152.048 93.4562,149.715 94.5,147.5C 94.1667,146.833 93.8333,146.167 93.5,145.5C 92.5197,146.981 91.353,148.315 90,149.5C 89.3551,148.354 88.5217,147.354 87.5,146.5C 87.7093,145.914 88.0426,145.414 88.5,145C 91.1667,144.333 93.8333,143.667 96.5,143C 93.8386,140.375 91.5053,140.375 89.5,143C 87.2001,143.658 84.8668,144.158 82.5,144.5C 80.9704,144.36 79.9704,143.693 79.5,142.5C 84.2007,144.489 86.5341,142.822 86.5,137.5C 87.2978,139.078 87.7978,140.744 88,142.5C 88.2117,140.22 89.0451,138.22 90.5,136.5C 87.9135,135.52 85.2469,135.187 82.5,135.5C 82.281,134.325 82.6143,133.325 83.5,132.5C 84.7362,133.246 86.0695,133.579 87.5,133.5C 87.8064,130.615 87.4731,127.948 86.5,125.5C 86.1667,125.5 85.8333,125.5 85.5,125.5C 84.8826,125.611 84.3826,125.944 84,126.5C 82.6932,125.228 81.1932,124.228 79.5,123.5C 80.7385,120.531 81.4052,117.364 81.5,114C 81.4978,110.979 81.1644,108.146 80.5,105.5C 78.2755,100.891 74.6088,99.3913 69.5,101C 68.9558,101.717 68.2891,102.217 67.5,102.5C 65.5441,100.852 63.2108,100.185 60.5,100.5C 59.8335,106.014 59.1668,111.681 58.5,117.5C 57.8076,116.975 57.3076,116.308 57,115.5C 57.1184,110.067 56.2851,105.067 54.5,100.5C 52.7078,99.6909 50.7078,99.1909 48.5,99C 51.877,98.6315 55.2103,98.6315 58.5,99C 56.7518,96.9871 55.4185,94.8205 54.5,92.5C 52.8333,92.5 51.1667,92.5 49.5,92.5C 48.545,94.2835 47.8783,96.2835 47.5,98.5C 48.8048,106.853 48.8048,115.186 47.5,123.5C 46.2643,124.357 44.931,125.023 43.5,125.5C 40.9665,124.212 38.4665,124.212 36,125.5C 33.131,124.147 30.2977,123.814 27.5,124.5C 27.4142,123.504 27.7476,122.671 28.5,122C 26.2567,119.977 23.9234,119.143 21.5,119.5C 23.5458,116.367 25.2124,113.034 26.5,109.5C 27.3636,107.803 28.6969,106.637 30.5,106C 29.6634,104.989 29.33,103.822 29.5,102.5C 31.933,100.382 33.5997,97.7157 34.5,94.5C 35.1667,95.1667 35.8333,95.8333 36.5,96.5C 37.4255,95.3595 38.2588,95.3595 39,96.5C 39.1667,96.1667 39.3333,95.8333 39.5,95.5C 38.1667,94.5 36.8333,93.5 35.5,92.5C 36.325,91.6143 37.325,91.281 38.5,91.5C 38.5,90.1667 38.5,88.8333 38.5,87.5C 48.1667,87.5 57.8333,87.5 67.5,87.5C 67.5,86.5 67.5,85.5 67.5,84.5C 69.1667,84.5 70.8333,84.5 72.5,84.5C 72.5,82.5 72.5,80.5 72.5,78.5 Z"/></g>
<g><path style="opacity:1" fill="#5da5e1" d="M 31.5,94.5 C 24.8333,94.5 18.1667,94.5 11.5,94.5C 11.5,95.5 11.5,96.5 11.5,97.5C 16.3633,97.1805 21.03,97.5139 25.5,98.5C 21.03,97.5139 16.3633,97.1805 11.5,97.5C 11.5,96.5 11.5,95.5 11.5,94.5C 18.1667,94.5 24.8333,94.5 31.5,94.5 Z"/></g>
<g><path style="opacity:1" fill="#0f66e8" d="M 31.5,94.5 C 31.4162,97.3274 30.7496,99.994 29.5,102.5C 25.7371,108.215 22.2371,114.215 19,120.5C 17.1862,121.76 15.3529,121.76 13.5,120.5C 17.5123,113.14 21.5123,105.806 25.5,98.5C 21.03,97.5139 16.3633,97.1805 11.5,97.5C 11.5,96.5 11.5,95.5 11.5,94.5C 18.1667,94.5 24.8333,94.5 31.5,94.5 Z"/></g>
<g><path style="opacity:1" fill="#81beea" d="M 60.5,100.5 C 63.2108,100.185 65.5441,100.852 67.5,102.5C 67.44,103.043 67.1067,103.376 66.5,103.5C 65.1585,101.995 63.4918,101.328 61.5,101.5C 61.5,108.167 61.5,114.833 61.5,121.5C 60.5088,114.687 60.1755,107.687 60.5,100.5 Z"/></g>
<g><path style="opacity:1" fill="#1669eb" d="M 108.5,93.5 C 108.5,102.833 108.5,112.167 108.5,121.5C 106.833,121.5 105.167,121.5 103.5,121.5C 103.5,114.167 103.5,106.833 103.5,99.5C 101.801,99.6602 100.134,99.4935 98.5,99C 97.269,97.8173 97.269,96.6507 98.5,95.5C 101.757,94.4486 105.09,93.7819 108.5,93.5 Z"/></g>
<g><path style="opacity:1" fill="#1f6ceb" d="M 80.5,105.5 C 80.5,110.833 80.5,116.167 80.5,121.5C 78.8333,121.5 77.1667,121.5 75.5,121.5C 75.6659,116.489 75.4993,111.489 75,106.5C 72.3333,103.833 69.6667,103.833 67,106.5C 66.5007,111.489 66.3341,116.489 66.5,121.5C 64.8333,121.5 63.1667,121.5 61.5,121.5C 61.5,114.833 61.5,108.167 61.5,101.5C 63.4918,101.328 65.1585,101.995 66.5,103.5C 67.1067,103.376 67.44,103.043 67.5,102.5C 68.2891,102.217 68.9558,101.717 69.5,101C 74.6088,99.3913 78.2755,100.891 80.5,105.5 Z"/></g>
<g><path style="opacity:1" fill="#ccf3ef" d="M 49.5,92.5 C 49.5,94.1667 49.5,95.8333 49.5,97.5C 51.1667,97.5 52.8333,97.5 54.5,97.5C 54.5,95.8333 54.5,94.1667 54.5,92.5C 55.4185,94.8205 56.7518,96.9871 58.5,99C 55.2103,98.6315 51.877,98.6315 48.5,99C 50.7078,99.1909 52.7078,99.6909 54.5,100.5C 56.2851,105.067 57.1184,110.067 57,115.5C 57.3076,116.308 57.8076,116.975 58.5,117.5C 59.1668,111.681 59.8335,106.014 60.5,100.5C 60.1755,107.687 60.5088,114.687 61.5,121.5C 63.1667,121.5 64.8333,121.5 66.5,121.5C 66.3341,116.489 66.5007,111.489 67,106.5C 69.6667,103.833 72.3333,103.833 75,106.5C 75.4993,111.489 75.6659,116.489 75.5,121.5C 77.1667,121.5 78.8333,121.5 80.5,121.5C 80.5,116.167 80.5,110.833 80.5,105.5C 81.1644,108.146 81.4978,110.979 81.5,114C 81.4052,117.364 80.7385,120.531 79.5,123.5C 81.1932,124.228 82.6932,125.228 84,126.5C 84.3826,125.944 84.8826,125.611 85.5,125.5C 85.6567,126.873 85.49,128.207 85,129.5C 80.923,123.794 79.5897,124.461 81,131.5C 81.3333,130.5 81.6667,129.5 82,128.5C 85.6381,132.459 87.1381,131.459 86.5,125.5C 87.4731,127.948 87.8064,130.615 87.5,133.5C 86.0695,133.579 84.7362,133.246 83.5,132.5C 82.6143,133.325 82.281,134.325 82.5,135.5C 85.2469,135.187 87.9135,135.52 90.5,136.5C 89.0451,138.22 88.2117,140.22 88,142.5C 87.7978,140.744 87.2978,139.078 86.5,137.5C 86.5341,142.822 84.2007,144.489 79.5,142.5C 79.1583,141.662 78.4916,141.328 77.5,141.5C 77.4622,134.959 76.7955,134.959 75.5,141.5C 75.1667,141.333 74.8333,141.167 74.5,141C 73.73,138.433 72.73,135.933 71.5,133.5C 73.7581,130.229 76.2581,129.896 79,132.5C 78.8744,129.902 77.8744,127.569 76,125.5C 74.7485,127.001 73.7485,128.668 73,130.5C 73.0693,125.921 71.5693,124.921 68.5,127.5C 65.4307,124.921 63.9307,125.921 64,130.5C 63.3128,128.445 62.1461,126.779 60.5,125.5C 59.8333,126.167 59.1667,126.833 58.5,127.5C 56.4902,125.829 54.1569,125.162 51.5,125.5C 51.3379,127.527 51.5045,129.527 52,131.5C 53.1396,128.982 54.3063,128.982 55.5,131.5C 53.5648,132.15 51.5648,132.483 49.5,132.5C 50.2341,131.292 50.5674,129.959 50.5,128.5C 48.8333,129.167 47.1667,129.833 45.5,130.5C 45.2196,127.612 46.5529,126.112 49.5,126C 47.1913,125.244 45.1913,125.744 43.5,127.5C 36.7978,124.202 35.1311,125.869 38.5,132.5C 37.1266,132.657 35.7932,132.49 34.5,132C 32.443,128.7 31.443,128.867 31.5,132.5C 28.1116,132.812 25.6116,131.479 24,128.5C 23.7508,129.624 23.2508,130.624 22.5,131.5C 21.5344,129.604 21.2011,127.604 21.5,125.5C 22.8333,125.5 24.1667,125.5 25.5,125.5C 25.3668,122.075 26.0335,121.742 27.5,124.5C 30.2977,123.814 33.131,124.147 36,125.5C 38.4665,124.212 40.9665,124.212 43.5,125.5C 44.931,125.023 46.2643,124.357 47.5,123.5C 48.8048,115.186 48.8048,106.853 47.5,98.5C 47.8783,96.2835 48.545,94.2835 49.5,92.5 Z"/></g>
<g><path style="opacity:1" fill="#1b6ae6" d="M 54.5,100.5 C 54.5,107.5 54.5,114.5 54.5,121.5C 52.8333,121.5 51.1667,121.5 49.5,121.5C 49.5,114.5 49.5,107.5 49.5,100.5C 51.1667,100.5 52.8333,100.5 54.5,100.5 Z"/></g>
<g><path style="opacity:1" fill="#3074da" d="M 49.5,92.5 C 51.1667,92.5 52.8333,92.5 54.5,92.5C 54.5,94.1667 54.5,95.8333 54.5,97.5C 52.8333,97.5 51.1667,97.5 49.5,97.5C 49.5,95.8333 49.5,94.1667 49.5,92.5 Z"/></g>
<g><path style="opacity:1" fill="#aad7eb" d="M 108.5,93.5 C 108.833,93.5 109.167,93.5 109.5,93.5C 109.666,103.172 109.5,112.839 109,122.5C 108.5,123 108,123.5 107.5,124C 109.134,124.494 110.801,124.66 112.5,124.5C 112.5,127.167 112.5,129.833 112.5,132.5C 108.5,132.5 104.5,132.5 100.5,132.5C 100.5,129.833 100.5,127.167 100.5,124.5C 103.567,124.879 104.567,123.879 103.5,121.5C 105.167,121.5 106.833,121.5 108.5,121.5C 108.5,112.167 108.5,102.833 108.5,93.5 Z"/></g>
<g><path style="opacity:1" fill="#8ab7d7" d="M 9.5,125.5 C 13.1568,126.642 16.8235,126.809 20.5,126C 17.3323,126.582 16.999,127.582 19.5,129C 18.8333,129.333 18.1667,129.667 17.5,130C 18.624,130.249 19.624,130.749 20.5,131.5C 18.9547,132.452 17.288,132.785 15.5,132.5C 15.4123,128.204 13.579,127.871 10,131.5C 9.50454,129.527 9.33788,127.527 9.5,125.5 Z"/></g>
<g><path style="opacity:1" fill="#75a3ce" d="M 85.5,125.5 C 85.8333,125.5 86.1667,125.5 86.5,125.5C 87.1381,131.459 85.6381,132.459 82,128.5C 81.6667,129.5 81.3333,130.5 81,131.5C 79.5897,124.461 80.923,123.794 85,129.5C 85.49,128.207 85.6567,126.873 85.5,125.5 Z"/></g>
<g><path style="opacity:1" fill="#7bacd2" d="M 89.5,125.5 C 90.8589,126.007 91.8589,127.007 92.5,128.5C 94.3354,124.735 95.8354,125.068 97,129.5C 97.2189,128.062 97.7189,126.729 98.5,125.5C 99.1916,127.335 98.8583,129.168 97.5,131C 96.2575,131.311 95.2575,130.811 94.5,129.5C 93.8333,130.167 93.1667,130.833 92.5,131.5C 90.9617,129.757 89.9617,127.757 89.5,125.5 Z"/></g>
<g><path style="opacity:1" fill="#91bed9" d="M 49.5,132.5 C 47.1727,132.753 45.1727,132.086 43.5,130.5C 42.1502,131.95 40.4835,132.617 38.5,132.5C 35.1311,125.869 36.7978,124.202 43.5,127.5C 45.1913,125.744 47.1913,125.244 49.5,126C 46.5529,126.112 45.2196,127.612 45.5,130.5C 47.1667,129.833 48.8333,129.167 50.5,128.5C 50.5674,129.959 50.2341,131.292 49.5,132.5 Z"/></g>
<g><path style="opacity:1" fill="#a5d0e3" d="M 77.5,141.5 C 76.6879,142.993 75.3545,143.66 73.5,143.5C 69.5311,143.474 65.5311,143.14 61.5,142.5C 60.6236,142.631 59.9569,142.298 59.5,141.5C 61.6446,134.987 63.8113,134.987 66,141.5C 66.2022,139.744 66.7022,138.078 67.5,136.5C 68.4776,136.977 69.3109,137.643 70,138.5C 70.1667,137.833 70.3333,137.167 70.5,136.5C 70.0079,130.905 68.1746,130.239 65,134.5C 63.2942,133.692 62.4609,132.359 62.5,130.5C 60.4004,130.477 58.5671,131.144 57,132.5C 56.2352,132.43 55.7352,132.097 55.5,131.5C 54.3063,128.982 53.1396,128.982 52,131.5C 51.5045,129.527 51.3379,127.527 51.5,125.5C 54.1569,125.162 56.4902,125.829 58.5,127.5C 59.1667,126.833 59.8333,126.167 60.5,125.5C 62.1461,126.779 63.3128,128.445 64,130.5C 63.9307,125.921 65.4307,124.921 68.5,127.5C 71.5693,124.921 73.0693,125.921 73,130.5C 73.7485,128.668 74.7485,127.001 76,125.5C 77.8744,127.569 78.8744,129.902 79,132.5C 76.2581,129.896 73.7581,130.229 71.5,133.5C 72.73,135.933 73.73,138.433 74.5,141C 74.8333,141.167 75.1667,141.333 75.5,141.5C 76.7955,134.959 77.4622,134.959 77.5,141.5 Z"/></g>
<g><path style="opacity:0.996" fill="#d4fdea" d="M 9.5,137.5 C 10.3414,139.379 10.6747,141.379 10.5,143.5C 11.5,143.5 12.5,143.5 13.5,143.5C 13.8333,135.5 14.1667,135.5 14.5,143.5C 15.9587,143.433 17.2921,143.766 18.5,144.5C 19.6782,145.999 21.3449,146.999 23.5,147.5C 22.8333,148.167 22.1667,148.833 21.5,149.5C 22,149.833 22.5,150.167 23,150.5C 25.4636,149.237 26.6303,147.237 26.5,144.5C 28.5273,144.338 30.5273,144.505 32.5,145C 31.3044,145.654 31.3044,146.154 32.5,146.5C 33.9705,145.619 34.8038,144.286 35,142.5C 37.5177,143.791 39.851,143.458 42,141.5C 44.6491,142.83 47.3157,144.163 50,145.5C 50.5,145 51,144.5 51.5,144C 55.0252,143.821 58.3586,143.321 61.5,142.5C 65.5311,143.14 69.5311,143.474 73.5,143.5C 75.3545,143.66 76.6879,142.993 77.5,141.5C 78.4916,141.328 79.1583,141.662 79.5,142.5C 79.9704,143.693 80.9704,144.36 82.5,144.5C 84.8668,144.158 87.2001,143.658 89.5,143C 91.5053,140.375 93.8386,140.375 96.5,143C 93.8333,143.667 91.1667,144.333 88.5,145C 88.0426,145.414 87.7093,145.914 87.5,146.5C 88.5217,147.354 89.3551,148.354 90,149.5C 91.353,148.315 92.5197,146.981 93.5,145.5C 93.8333,146.167 94.1667,146.833 94.5,147.5C 93.4562,149.715 92.7895,152.048 92.5,154.5C 92.9379,157.527 93.1045,160.527 93,163.5C 92.3333,162.167 91.6667,160.833 91,159.5C 90.6827,161.301 90.016,161.634 89,160.5C 87.8139,162.677 85.9806,163.677 83.5,163.5C 83.6495,164.552 83.4828,165.552 83,166.5C 81.5557,164.845 79.7224,164.178 77.5,164.5C 76.8333,168.5 76.1667,168.5 75.5,164.5C 71.5,164.5 67.5,164.5 63.5,164.5C 63.5,166.167 63.5,167.833 63.5,169.5C 71.0005,170.705 78.5005,170.705 86,169.5C 88.9002,170.706 91.7336,171.372 94.5,171.5C 95.5407,169.009 96.3741,169.009 97,171.5C 98.0736,170.382 99.2402,169.382 100.5,168.5C 99.9851,166.775 99.3184,165.108 98.5,163.5C 97.5713,164.689 97.238,166.022 97.5,167.5C 96.448,167.649 95.448,167.483 94.5,167C 95.1388,162.879 95.8055,158.713 96.5,154.5C 97.6721,154.081 98.6721,153.415 99.5,152.5C 98.1667,151.5 96.8333,150.5 95.5,149.5C 96.9507,148.094 98.2841,146.594 99.5,145C 98.8333,144.333 98.1667,143.667 97.5,143C 101.5,142 101.5,141 97.5,140C 98.8334,137.991 100.5,136.324 102.5,135C 101.376,134.751 100.376,134.251 99.5,133.5C 99.6236,132.893 99.9569,132.56 100.5,132.5C 101.568,133.434 102.901,133.768 104.5,133.5C 104.383,135.484 105.05,137.15 106.5,138.5C 106.167,138.833 105.833,139.167 105.5,139.5C 104.38,138.167 103.047,137.667 101.5,138C 103.229,139.789 103.896,141.956 103.5,144.5C 102.325,144.281 101.325,144.614 100.5,145.5C 102.108,146.318 103.775,146.985 105.5,147.5C 106.386,146.675 106.719,145.675 106.5,144.5C 110.893,144.457 111.226,144.957 107.5,146C 107.833,146.333 108.167,146.667 108.5,147C 111.409,146.716 114.242,146.883 117,147.5C 119.76,146.973 122.26,145.973 124.5,144.5C 124.5,155.833 124.5,167.167 124.5,178.5C 82.8333,178.5 41.1667,178.5 -0.5,178.5C -0.5,158.833 -0.5,139.167 -0.5,119.5C 0.151487,118.909 0.818153,118.243 1.5,117.5C 2.5,118.167 3.5,118.833 4.5,119.5C 5.53208,117.96 6.86541,117.46 8.5,118C 7.42575,118.739 6.75908,119.739 6.5,121C 8.25588,124.616 8.92255,128.449 8.5,132.5C 7.5,132.5 6.5,132.5 5.5,132.5C 5.73767,135.069 7.071,136.735 9.5,137.5 Z"/></g>
<g><path style="opacity:1" fill="#a6d1e3" d="M 18.5,144.5 C 17.2921,143.766 15.9587,143.433 14.5,143.5C 14.1667,135.5 13.8333,135.5 13.5,143.5C 12.5,143.5 11.5,143.5 10.5,143.5C 10.6747,141.379 10.3414,139.379 9.5,137.5C 9.79106,136.351 10.6244,135.684 12,135.5C 19.057,136.723 26.2237,136.723 33.5,135.5C 33.6556,139.135 34.8223,139.468 37,136.5C 37.1667,136.833 37.3333,137.167 37.5,137.5C 36.6698,139.135 36.5031,140.802 37,142.5C 36.3109,141.643 35.4776,140.977 34.5,140.5C 31.2066,144.234 28.0399,144.234 25,140.5C 24.6924,141.308 24.1924,141.975 23.5,142.5C 22.1861,141.687 21.0195,140.687 20,139.5C 19.8019,141.382 19.3019,143.048 18.5,144.5 Z"/></g>
<g><path style="opacity:1" fill="#bbe3e9" d="M 30.5,163.5 C 33.5184,163.335 36.5184,163.502 39.5,164C 41.4025,164.199 42.9025,165.033 44,166.5C 45.3561,165.62 46.8561,165.286 48.5,165.5C 48.5,166.833 48.5,168.167 48.5,169.5C 45.5515,170.013 42.7181,170.013 40,169.5C 33.7742,172.467 30.6075,170.467 30.5,163.5 Z"/></g>
<g><path style="opacity:1" fill="#9ac4da" d="M 53.5,164.5 C 55.0744,164.937 56.2411,165.937 57,167.5C 57.5885,165.137 59.0885,164.137 61.5,164.5C 61.5,166.167 61.5,167.833 61.5,169.5C 58.6537,168.905 55.6537,168.905 52.5,169.5C 52.6287,167.784 52.962,166.117 53.5,164.5 Z"/></g>
</svg>
